PathFileType	4	(X/Y/Z)	../Python\walking\Walking20\task.trc
DataRate	CameraRate	NumFrames	NumMarkers	Units	OrigDataRate	OrigDataStartFrame	OrigNumFrames
200.000000	200.000000	4	30	mm	200.000000	363	485
Frame#	Time	CLAV			STRN			RASI			LASI			PE01			RTH1			RTH2			RTH3			RTB1			RHEE			RD5M			RTOE			LTH2			LTH3			LTB1			LTB2			LTB3			LHEE			LTOE			LD5M			RTB3			RBAK			RTB2			C7			RPSI			LPSI			PE03			PE02			LTH1			T10			
		X1	Y1	Z1	X2	Y2	Z2	X3	Y3	Z3	X4	Y4	Z4	X5	Y5	Z5	X6	Y6	Z6	X7	Y7	Z7	X8	Y8	Z8	X9	Y9	Z9	X10	Y10	Z10	X11	Y11	Z11	X12	Y12	Z12	X13	Y13	Z13	X14	Y14	Z14	X15	Y15	Z15	X16	Y16	Z16	X17	Y17	Z17	X18	Y18	Z18	X19	Y19	Z19	X20	Y20	Z20	X21	Y21	Z21	X22	Y22	Z22	X23	Y23	Z23	X24	Y24	Z24	X25	Y25	Z25	X26	Y26	Z26	X27	Y27	Z27	X28	Y28	Z28	X29	Y29	Z29	X30	Y30	Z30	

364	1.815	927.379028320313	1250.975952148438	124.5670852661133	995.4914550781255	1067.76611328125	134.6445770263672	960.3496093750005	857.5045776367192	274.5249938964845	963.275512695313	875.741821289063	48.15059280395511	767.0715332031252	944.3137207031255	179.849349975586	888.0317382812505	562.9630126953127	314.9364624023439	906.3088989257817	486.2036743164065	303.7716369628907	932.9741821289067	542.2573242187502	305.8722229003907	796.0242309570317	310.8951110839845	288.5164184570314	556.4612426757815	230.983367919922	182.947982788086	561.3144531250002	92.98481750488284	263.8475341796876	586.8958129882815	64.28242492675784	222.9189453125001	948.0615234375005	554.6145019531252	26.17498588562013	1009.749328613282	604.811950683594	21.86110496520997	968.9929809570317	286.7729492187501	35.94195938110353	962.9155883789067	208.1890716552736	47.35827255249025	1002.438049316407	237.5809173583986	53.99674606323245	926.0144653320317	34.62636947631837	102.0959625244141	1117.779907226563	31.2987518310547	113.6048736572266	1077.781494140625	17.58117675781251	60.68027114868167	729.411315917969	268.9168090820314	275.1742553710939	774.0133666992192	1251.873413085938	260.7608032226564	734.7425537109377	317.6958923339845	284.8026123046876	802.2976684570317	1341.4453125	139.6833953857422	765.6932373046877	906.9539184570317	221.3887329101564	762.7722167968752	912.2113647460942	133.2481536865235	752.736022949219	889.8547363281255	143.6326599121094	751.5903320312502	881.451049804688	193.599578857422	962.5245971679692	613.3286132812502	10.91676235198975	784.4506835937505	1045.8359375	173.8609466552735	
365	1.82	933.9680786132817	1252.44970703125	124.806625366211	1001.900756835938	1069.14208984375	134.8701934814454	966.1979370117192	858.8965454101567	274.082000732422	969.505249023438	876.5495605468755	47.63352203369142	773.0021362304692	945.6209106445317	178.7483520507813	898.3536987304692	564.1447753906252	314.6477966308595	917.940551757813	487.7477111816409	303.6327514648439	943.6586303710942	544.2011718750002	305.874481201172	809.688598632813	312.2834472656251	287.8133850097657	568.9401855468752	231.2182617187501	181.9097595214844	577.943786621094	94.16798400878909	263.5572204589845	604.0118408203127	65.61795806884768	222.6499633789064	951.0576782226567	555.1562500000002	25.56407928466798	1013.25927734375	604.863708496094	21.23208045959473	969.6182250976567	286.7895507812501	35.59914779663087	963.2478637695317	208.2577209472657	47.07110595703126	1002.941528320313	237.4713897705079	53.51923751831058	925.9729003906255	34.64803314208986	102.073471069336	1117.76025390625	31.26400375366212	113.5473175048829	1077.756103515625	17.47980117797852	60.60993194580081	742.997253417969	270.3819580078126	274.3130493164064	780.0085449218755	1253.039794921875	260.1395874023439	748.355407714844	319.1792907714845	284.0812072753907	808.8815307617192	1342.921142578125	139.4724884033204	771.483764648438	908.2438964843755	220.1565246582032	768.8891601562505	913.6184082031255	132.0818176269532	758.7216796875002	891.1558227539067	142.5675659179688	757.480407714844	882.8496704101567	192.5251617431642	966.0567016601567	613.7695312500002	10.35016345977784	790.6721801757817	1047.26513671875	172.6292114257813	
366	1.825	940.5249023437505	1253.891845703125	125.0712051391602	1008.256530761719	1070.48388671875	135.1129913330079	972.023803710938	860.3079223632817	273.6576538085939	975.699584960938	877.3413085937505	47.1297073364258	778.9138793945317	946.9161987304692	177.6416168212891	908.6989135742192	565.4259033203127	314.3220214843751	929.6310424804692	489.4118652343752	303.4350891113282	954.3684082031255	546.2617187500002	305.8251037597657	823.4150390625005	313.696746826172	287.0682678222657	581.4810791015627	230.9586639404298	180.935775756836	595.2062988281252	94.92267608642581	263.2958068847657	621.8194580078127	66.69431304931643	222.3946228027345	954.0815429687505	555.715270996094	24.96237945556642	1016.799987792969	604.9211425781252	20.7149829864502	970.2446289062505	286.8127441406251	35.25958251953126	963.5934448242192	208.3299102783204	46.77662658691408	1003.440612792969	237.3746185302736	53.05813217163089	925.9372558593755	34.67582321166994	102.0530090332032	1117.745361328125	31.23169708251955	113.4912338256837	1077.732055664063	17.37620544433594	60.53287887573245	756.6901855468752	271.7851867675782	273.438934326172	785.9732055664067	1254.184814453125	259.5286254882814	762.0120849609377	320.6243896484376	283.3204650878907	815.4406738281255	1344.375610351563	139.2840576171876	777.240600585938	909.538696289063	218.9362335205079	774.9686889648442	914.993530273438	130.9298248291016	764.6729125976565	892.436889648438	141.5185089111329	763.3394775390627	884.2506713867192	191.4703979492188	969.6132202148442	614.217712402344	9.833030700683597	796.856323242188	1048.67822265625	171.3972930908204	
367	1.83	947.050415039063	1255.299072265625	125.3583297729493	1014.5615234375	1071.789794921875	135.3687133789063	977.831909179688	861.7348632812505	273.2457275390626	981.8611450195317	878.1193847656255	46.63581848144533	784.809936523438	948.1955566406255	176.5331115722657	919.062133789063	566.7986450195315	313.9606933593751	941.3693237304692	491.1881408691409	303.1798095703126	965.0969848632817	548.4295043945315	305.7226867675782	837.200805664063	315.1144409179689	286.2821044921876	594.1372070312502	230.2234344482423	180.0219726562501	613.0024414062502	95.27722167968753	263.0428161621095	640.207946777344	67.51822662353518	222.1394805908204	957.1315307617192	556.2871704101565	24.37484931945802	1020.371032714844	604.9689941406252	20.30989646911622	970.8837890625005	286.8421020507814	34.92923736572267	963.9602661132817	208.4051971435548	46.48043441772462	1003.942749023438	237.2898254394532	52.61991882324222	925.9067993164067	34.7078323364258	102.0367050170899	1117.734619140625	31.20269203186037	113.4378967285157	1077.709838867188	17.27277183532716	60.45193862915042	770.4960937500005	273.0965576171876	272.5530395507814	791.9103393554692	1255.30517578125	258.9281005859376	775.7136840820317	321.996063232422	282.5298461914064	821.975708007813	1345.804077148438	139.1170959472657	782.9716796875005	910.8335571289067	217.7337341308595	781.0148925781255	916.332397460938	129.7951965332032	770.5946655273442	893.692260742188	140.4898223876954	769.174926757813	885.6479492187505	190.4400177001954	973.200561523438	614.666198730469	9.365827560424808	803.0065307617192	1050.070678710938	170.1683349609376	
